<?xml version="1.0" encoding="utf-8"?>
<!-- Generator: Adobe Illustrator 16.0.0, SVG Export Plug-In . SVG Version: 6.00 Build 0)  -->
<!DOCTYPE svg PUBLIC "-//W3C//DTD SVG 1.1//EN" "http://www.w3.org/Graphics/SVG/1.1/DTD/svg11.dtd">
<svg version="1.1" id="Layer_1" xmlns="http://www.w3.org/2000/svg" xmlns:xlink="http://www.w3.org/1999/xlink" x="0px" y="0px"
	 width="21px" height="21px" viewBox="0 0 21 21" enable-background="new 0 0 21 21" xml:space="preserve">
<g>
	<rect fill="#3695D8" width="21" height="21"/>
	<g>
		<g>
			<path fill="#FFFFFF" d="M12.293,16.604c-0.533,0.215-0.959,0.363-1.277,0.447c-0.317,0.084-0.59,0.125-0.815,0.125
				c-0.464,0-0.812-0.119-1.043-0.359c-0.231-0.24-0.348-0.539-0.348-0.893c0-0.133,0.012-0.271,0.035-0.417
				c0.023-0.146,0.061-0.327,0.113-0.548l0.918-3.697c0.045-0.201,0.091-0.42,0.134-0.652c0.044-0.23,0.065-0.428,0.065-0.591
				c0-0.325-0.054-0.54-0.16-0.647C9.807,9.264,9.588,9.21,9.26,9.21c-0.129,0-0.297,0.021-0.508,0.062
				C8.541,9.311,8.38,9.346,8.271,9.375L8.4,8.818c0.452-0.202,0.857-0.353,1.216-0.451c0.359-0.098,0.643-0.147,0.851-0.147
				c0.475,0,0.82,0.112,1.034,0.339s0.321,0.53,0.321,0.913c0,0.104-0.012,0.247-0.035,0.427c-0.021,0.18-0.059,0.359-0.104,0.539
				l-0.925,3.695c-0.057,0.227-0.107,0.448-0.15,0.666c-0.044,0.217-0.064,0.396-0.064,0.535c0,0.33,0.072,0.557,0.221,0.678
				c0.146,0.122,0.384,0.184,0.714,0.184c0.108,0,0.267-0.016,0.472-0.043c0.205-0.029,0.362-0.063,0.472-0.104L12.293,16.604z
				 M12.719,5.8c-0.215,0.247-0.48,0.37-0.8,0.37c-0.295,0-0.55-0.118-0.765-0.353c-0.214-0.234-0.321-0.503-0.321-0.804
				c0-0.318,0.107-0.596,0.321-0.834c0.215-0.237,0.47-0.355,0.765-0.355c0.33,0,0.601,0.111,0.808,0.334
				c0.209,0.223,0.313,0.482,0.313,0.777C13.04,5.266,12.934,5.554,12.719,5.8z"/>
		</g>
	</g>
</g>
</svg>
